<?xml version="1.0" standalone="no"?>
<!DOCTYPE svg PUBLIC "-//W3C//DTD SVG 20010904//EN"
 "http://www.w3.org/TR/2001/REC-SVG-20010904/DTD/svg10.dtd">
<svg version="1.0" xmlns="http://www.w3.org/2000/svg"
 width="512.000000pt" height="512.000000pt" viewBox="0 0 512.000000 512.000000"
 preserveAspectRatio="xMidYMid meet">

<g transform="translate(0.000000,512.000000) scale(0.100000,-0.100000)"
fill="#000000" stroke="none">
<path d="M160 5107 c-49 -16 -133 -102 -148 -153 -9 -32 -12 -511 -12 -2090
l0 -2049 24 -50 c28 -60 66 -97 126 -124 43 -19 64 -21 403 -21 l358 0 24 25
c35 34 34 86 -1 114 -26 20 -38 21 -376 21 l-349 0 -24 25 -25 24 0 2041 0
2041 25 24 24 25 1110 0 1110 0 3 -282 c3 -277 4 -284 28 -333 33 -68 99 -129
166 -154 50 -19 77 -21 299 -21 l245 0 0 -176 0 -176 30 -30 c26 -25 36 -29
63 -24 18 3 40 16 50 28 17 20 18 42 15 272 -3 239 -4 253 -25 286 -42 66
-666 722 -708 744 -40 21 -47 21 -1220 23 -841 1 -1190 -2 -1215 -10z m2674
-537 l217 -235 -177 -3 c-194 -3 -214 2 -258 61 -19 26 -21 43 -24 235 -3 181
-1 205 12 192 8 -8 111 -121 230 -250z"/>
<path d="M3583 5105 c-13 -9 -27 -32 -32 -53 -21 -78 -71 -326 -71 -352 0 -58
82 -91 129 -52 20 16 30 50 71 255 l12 58 76 -3 76 -3 31 -142 c21 -102 36
-148 50 -162 11 -10 54 -28 95 -41 41 -12 113 -41 159 -66 46 -24 93 -44 105
-44 11 0 76 36 144 80 68 44 127 80 131 80 9 0 101 -93 101 -102 0 -4 -36 -62
-80 -129 -44 -68 -80 -132 -80 -145 0 -12 20 -59 44 -105 25 -46 54 -118 66
-159 13 -41 31 -84 41 -95 14 -14 60 -29 162 -50 l142 -31 3 -77 c2 -42 -1
-77 -5 -77 -28 0 -288 -62 -299 -71 -8 -6 -25 -48 -39 -93 -14 -45 -45 -121
-70 -169 -25 -48 -45 -98 -45 -111 0 -56 87 -90 131 -50 25 22 99 167 123 241
l17 51 67 15 c37 8 105 23 152 33 130 28 130 28 130 223 0 163 -7 203 -39 217
-9 4 -81 21 -160 38 -93 20 -147 36 -152 46 -4 8 -22 51 -39 95 -17 44 -36 91
-42 105 -10 23 -2 39 72 154 57 87 83 137 83 158 0 25 -20 50 -121 150 -100
101 -125 121 -150 121 -21 0 -71 -26 -159 -83 -114 -74 -131 -81 -153 -72 -14
6 -68 28 -120 50 l-95 39 -27 129 c-38 177 -36 171 -60 194 -20 18 -35 20
-188 20 -133 0 -170 -3 -187 -15z"/>
<path d="M3713 4398 c-23 -24 -29 -61 -17 -93 10 -24 58 -45 107 -45 152 0
330 -119 406 -272 58 -116 66 -268 20 -401 -21 -63 -22 -71 -8 -95 18 -34 60
-49 96 -36 93 33 135 339 70 522 -36 102 -81 174 -158 251 -116 116 -254 180
-409 188 -80 5 -86 4 -107 -19z"/>
<path d="M463 4403 c-28 -6 -63 -49 -63 -78 0 -12 9 -34 21 -49 19 -24 27 -26
89 -26 62 0 70 2 89 26 59 76 -23 152 -136 127z"/>
<path d="M903 4403 c-28 -5 -63 -49 -63 -78 0 -12 9 -34 21 -49 l20 -26 594 0
c550 0 594 1 614 18 34 28 37 73 8 108 l-25 29 -574 1 c-315 1 -583 0 -595 -3z"/>
<path d="M425 4015 c-33 -33 -32 -70 4 -106 24 -24 38 -29 76 -29 51 0 99 20
109 45 12 33 5 66 -19 90 -20 21 -34 25 -85 25 -51 0 -65 -4 -85 -25z"/>
<path d="M871 4023 c-11 -10 -24 -32 -27 -50 -5 -27 -1 -37 24 -63 l30 -30
582 0 582 0 30 30 c25 26 29 36 24 63 -13 70 18 67 -636 67 -545 0 -589 -1
-609 -17z"/>
<path d="M439 3667 c-44 -34 -47 -103 -6 -132 13 -9 44 -15 80 -15 48 0 62 4
82 25 16 15 25 36 25 55 0 19 -9 40 -25 55 -20 21 -34 25 -82 25 -32 0 -65 -6
-74 -13z"/>
<path d="M883 3668 c-27 -13 -47 -59 -38 -88 4 -11 16 -30 28 -40 20 -19 36
-20 344 -20 l324 0 24 25 c16 15 25 36 25 55 0 19 -9 40 -25 55 l-24 25 -318
-1 c-201 0 -326 -4 -340 -11z"/>
<path d="M2356 3580 c-63 -25 -122 -81 -152 -145 -23 -48 -24 -59 -24 -277 l0
-227 -397 -3 -398 -3 -56 -26 c-91 -43 -162 -127 -191 -224 -4 -17 -8 -557 -8
-1212 l0 -1183 22 -57 c15 -42 38 -75 83 -120 53 -52 72 -64 131 -82 l69 -21
1710 2 1710 3 67 33 c77 38 130 92 167 171 l26 56 0 1200 0 1200 -27 57 c-35
76 -98 142 -167 175 l-56 28 -397 3 -397 3 -3 232 -3 232 -30 54 c-16 29 -47
69 -69 87 -76 65 -64 64 -850 64 -677 -1 -713 -2 -760 -20z m1516 -178 l33
-32 0 -218 0 -217 -85 0 -85 0 -3 168 -2 167 -610 0 -610 0 0 -170 0 -170 -85
0 -85 0 0 210 c0 169 3 217 15 240 32 62 2 60 777 57 l708 -2 32 -33z m-302
-382 l0 -90 -447 2 -448 3 -3 88 -3 87 451 0 450 0 0 -90z m1288 -271 c26 -13
54 -38 70 -62 l27 -40 3 -298 c3 -283 2 -300 -17 -338 -22 -42 -58 -72 -117
-97 -20 -9 -305 -67 -633 -130 -328 -62 -608 -116 -623 -120 l-28 -6 0 148 c0
128 -3 153 -20 188 -41 82 -35 81 -385 84 -347 3 -357 1 -402 -67 -22 -32 -23
-44 -23 -193 0 -147 -1 -159 -17 -154 -10 3 -117 23 -238 46 -746 140 -1012
193 -1051 212 -48 22 -101 76 -109 111 -3 12 -5 157 -3 323 l3 301 28 36 c15
21 45 46 65 57 36 19 71 19 1731 20 l1695 0 44 -21z m-1480 -1151 c-3 -368 -3
-367 -92 -445 -131 -115 -332 -65 -401 100 -12 30 -15 91 -15 352 l0 315 256
0 255 0 -3 -322z m-1359 32 c339 -64 632 -120 653 -124 l36 -7 4 -132 c3 -124
5 -136 35 -197 104 -213 349 -299 558 -196 159 78 235 218 235 428 0 54 4 98
8 98 12 0 1090 206 1206 231 54 11 123 31 152 44 l54 24 0 -742 c0 -698 -2
-744 -19 -782 -22 -49 -69 -91 -119 -105 -26 -8 -546 -10 -1723 -8 l-1685 3
-42 28 c-23 15 -51 45 -62 67 -20 38 -20 56 -20 789 l0 750 56 -26 c42 -19
212 -55 673 -143z"/>
<path d="M3065 1410 c-11 -12 -19 -36 -19 -55 0 -47 28 -75 74 -75 71 0 107
81 57 128 -31 29 -87 29 -112 2z"/>
</g>
</svg>
