<?xml version="1.0" standalone="no"?>
<!DOCTYPE svg PUBLIC "-//W3C//DTD SVG 20010904//EN"
 "http://www.w3.org/TR/2001/REC-SVG-20010904/DTD/svg10.dtd">
<svg version="1.0" xmlns="http://www.w3.org/2000/svg"
 width="512.000000pt" height="512.000000pt" viewBox="0 0 512.000000 512.000000"
 preserveAspectRatio="xMidYMid meet">

<g transform="translate(0.000000,512.000000) scale(0.100000,-0.100000)"
fill="#000000" stroke="none">
<path d="M1363 4945 c-126 -34 -249 -133 -308 -247 l-30 -58 -255 0 c-269 0
-314 -6 -398 -49 -91 -47 -166 -139 -196 -240 -14 -49 -16 -248 -16 -1952 0
-1817 1 -1900 18 -1957 36 -114 124 -207 239 -254 l58 -23 1435 0 c1586 0
1481 -4 1590 66 67 43 119 108 152 189 21 51 23 74 26 301 l4 246 106 21 c257
51 466 152 671 326 241 204 419 515 477 836 25 133 25 395 1 510 -63 303 -191
544 -402 755 -213 213 -448 338 -744 397 l-110 21 -3 251 c-3 250 -3 251 -31
310 -55 117 -136 189 -255 226 -58 18 -94 20 -361 20 l-297 0 -26 54 c-58 117
-182 216 -313 251 -83 21 -952 21 -1032 0z m1011 -339 c53 -40 66 -78 66 -191
l0 -95 -560 0 -560 0 0 94 c0 102 9 137 43 175 47 50 50 51 528 48 l446 -2 37
-29z m-1372 -394 c3 -102 5 -111 32 -146 53 -70 13 -67 860 -64 754 3 765 3
792 24 60 44 69 67 72 185 l4 109 264 0 c277 0 312 -5 328 -45 3 -9 6 -113 6
-230 l0 -213 -67 -12 c-188 -32 -347 -90 -505 -183 -352 -209 -589 -542 -680
-955 -29 -131 -32 -415 -5 -542 127 -612 582 -1056 1190 -1160 l67 -12 0 -217
c-1 -226 -2 -236 -47 -259 -31 -17 -2755 -17 -2786 0 -12 6 -27 18 -34 27 -18
24 -19 3740 0 3763 27 34 51 37 279 38 l226 0 4 -108z m2688 -707 c235 -35
449 -144 620 -315 340 -340 425 -845 216 -1275 -340 -699 -1251 -850 -1801
-300 -250 250 -367 612 -310 960 57 352 277 655 594 819 213 110 443 148 681
111z"/>
<path d="M815 3660 c-58 -29 -85 -74 -85 -140 0 -67 28 -112 87 -141 39 -19
57 -20 316 -17 261 3 277 4 304 24 98 73 98 195 0 268 -27 20 -42 21 -305 24
-261 2 -279 1 -317 -18z"/>
<path d="M1775 3660 c-58 -29 -85 -74 -85 -140 0 -67 28 -112 87 -141 37 -18
58 -20 157 -17 97 2 119 6 143 24 98 73 98 195 0 268 -24 18 -45 21 -145 24
-102 2 -122 0 -157 -18z"/>
<path d="M815 3020 c-58 -29 -85 -74 -85 -140 0 -67 28 -112 86 -140 40 -20
58 -21 477 -18 424 3 436 4 464 24 98 73 98 195 0 268 -28 20 -40 21 -465 24
-421 2 -438 2 -477 -18z"/>
<path d="M815 2380 c-58 -29 -85 -74 -85 -140 0 -67 28 -112 86 -140 40 -20
58 -21 477 -18 424 3 436 4 464 24 98 73 98 195 0 268 -28 20 -40 21 -465 24
-421 2 -438 2 -477 -18z"/>
<path d="M815 1740 c-58 -29 -85 -74 -85 -140 0 -67 28 -112 86 -140 40 -20
58 -20 557 -18 505 3 516 3 544 24 98 73 98 195 0 268 -28 21 -39 21 -545 24
-501 2 -518 2 -557 -18z"/>
<path d="M830 1109 c-89 -36 -129 -153 -77 -229 44 -66 66 -75 193 -78 99 -3
120 -1 157 17 59 29 87 74 87 141 0 67 -28 112 -86 140 -33 16 -60 20 -145 19
-57 0 -115 -5 -129 -10z"/>
<path d="M1470 1109 c-14 -6 -36 -20 -48 -32 -78 -72 -68 -185 21 -251 28 -20
40 -21 464 -24 419 -3 437 -2 477 18 58 28 86 73 86 140 0 67 -28 112 -86 140
-38 19 -61 20 -465 19 -257 0 -434 -4 -449 -10z"/>
<path d="M3605 3056 c-74 -33 -74 -33 -240 -616 -118 -410 -154 -551 -149
-574 16 -76 84 -136 155 -136 41 0 109 33 131 64 23 32 320 1070 320 1116 -2
112 -118 190 -217 146z"/>
<path d="M2945 2836 c-16 -8 -107 -92 -202 -188 -144 -146 -172 -180 -178
-212 -15 -78 4 -108 178 -284 89 -90 180 -173 201 -184 100 -51 226 26 226
139 0 24 -5 54 -11 66 -6 12 -57 68 -112 125 l-102 102 102 103 c55 56 106
112 112 124 19 37 13 107 -12 144 -48 72 -128 98 -202 65z"/>
<path d="M3954 2831 c-65 -39 -93 -103 -79 -177 5 -29 30 -61 112 -146 l107
-108 -106 -108 c-113 -114 -128 -142 -114 -217 9 -46 62 -100 114 -115 80 -25
106 -9 296 178 92 92 174 181 182 199 18 42 18 97 0 131 -22 41 -347 360 -379
372 -43 16 -99 12 -133 -9z"/>
</g>
</svg>
