<?xml version="1.0" standalone="no"?>
<!DOCTYPE svg PUBLIC "-//W3C//DTD SVG 20010904//EN"
 "http://www.w3.org/TR/2001/REC-SVG-20010904/DTD/svg10.dtd">
<svg version="1.0" xmlns="http://www.w3.org/2000/svg"
 width="512.000000pt" height="512.000000pt" viewBox="0 0 512.000000 512.000000"
 preserveAspectRatio="xMidYMid meet">

<g transform="translate(0.000000,512.000000) scale(0.100000,-0.100000)"
fill="#000000" stroke="none">
<path d="M1714 5036 c-18 -13 -19 -31 -24 -247 l-5 -233 -110 -41 c-60 -23
-138 -56 -172 -73 -34 -18 -68 -32 -75 -32 -7 0 -83 70 -168 155 -141 142
-158 155 -190 155 -33 0 -55 -20 -338 -303 -275 -276 -302 -306 -302 -336 0
-30 18 -51 159 -195 l158 -161 -38 -80 c-22 -44 -54 -123 -73 -175 l-34 -95
-223 -5 c-123 -3 -231 -9 -240 -13 -36 -18 -39 -49 -39 -471 0 -403 1 -414 21
-440 l20 -26 228 0 228 0 33 -92 c18 -51 52 -133 76 -183 l44 -90 -160 -160
c-143 -145 -160 -165 -160 -195 0 -31 25 -59 303 -337 279 -280 305 -303 336
-303 31 0 51 16 196 160 l160 160 90 -44 c50 -24 132 -58 183 -76 l92 -33 0
-228 0 -228 26 -20 c26 -20 38 -21 356 -21 273 0 334 3 358 15 41 21 47 64 20
140 -86 248 -97 563 -28 825 43 161 45 193 18 220 -21 21 -27 22 -94 14 -39
-5 -138 -9 -221 -9 -126 1 -163 4 -230 23 -339 97 -589 347 -687 688 -20 68
-23 102 -23 244 0 142 3 176 23 245 115 398 425 667 827 715 354 42 710 -124
911 -426 67 -100 99 -172 132 -294 22 -82 25 -117 26 -256 1 -144 3 -164 20
-183 27 -30 71 -27 163 12 89 39 250 81 371 98 121 17 342 7 484 -21 l118 -24
27 21 28 20 3 260 c2 244 1 262 -17 284 -19 24 -21 24 -249 27 l-231 3 -21 67
c-12 36 -44 118 -72 180 l-51 114 157 157 c148 149 156 159 156 196 0 38 -9
49 -298 337 -288 289 -299 298 -337 298 -37 0 -47 -8 -196 -156 l-158 -157
-113 50 c-62 28 -143 61 -180 73 l-67 21 -3 231 c-3 228 -3 230 -27 249 -22
18 -45 19 -450 19 -353 0 -431 -2 -447 -14z m766 -350 c0 -264 -8 -249 155
-300 63 -20 168 -63 234 -96 65 -33 132 -60 148 -60 23 0 56 28 180 152 l153
153 225 -225 224 -224 -149 -152 c-131 -132 -150 -156 -150 -184 0 -19 24 -80
60 -151 33 -66 76 -171 96 -234 51 -163 36 -155 300 -155 l214 0 0 -135 c0
-74 -3 -135 -7 -135 -5 0 -57 7 -118 15 -237 32 -499 8 -709 -65 -33 -11 -60
-19 -61 -18 -2 2 -8 57 -15 123 -22 218 -98 413 -228 581 -408 528 -1181 589
-1661 130 -241 -231 -362 -530 -348 -861 7 -153 30 -258 88 -394 137 -320 415
-558 758 -648 75 -20 129 -27 249 -30 124 -5 152 -8 148 -19 -3 -8 -13 -52
-21 -99 -36 -192 -34 -442 5 -634 11 -55 23 -107 26 -115 5 -14 -18 -16 -215
-16 l-221 0 0 218 c0 199 -2 220 -18 235 -10 9 -67 33 -128 52 -60 20 -169 65
-242 101 -104 51 -139 64 -160 59 -16 -4 -88 -67 -175 -153 l-147 -146 -220
219 c-121 121 -220 224 -220 230 0 5 68 77 150 160 83 83 150 159 150 169 0
10 -29 77 -65 150 -36 72 -80 180 -100 240 -19 60 -42 118 -51 128 -16 16 -36
18 -236 18 l-218 0 0 320 0 320 214 0 c189 0 216 2 235 18 12 10 36 65 60 140
22 68 68 178 101 244 47 93 60 127 55 147 -4 15 -71 91 -156 176 l-149 150
225 225 225 225 153 -153 c129 -129 157 -152 183 -152 17 0 80 25 145 58 63
32 169 76 234 96 71 23 127 46 138 58 15 18 17 45 17 232 0 117 3 216 7 219 3
4 147 7 320 7 l313 0 0 -214z"/>
<path d="M2005 3700 c-293 -53 -542 -266 -636 -544 -157 -467 129 -964 610
-1062 101 -20 281 -15 376 11 159 43 329 157 428 287 64 84 127 212 153 313
25 99 23 283 -5 388 -26 100 -68 194 -95 213 -31 22 -74 17 -101 -11 -32 -31
-31 -48 6 -135 34 -80 59 -196 59 -271 0 -83 -29 -199 -72 -289 -33 -68 -57
-100 -127 -170 -132 -132 -271 -191 -451 -191 -119 -1 -188 15 -295 66 -162
78 -282 214 -339 386 -24 69 -29 103 -30 189 -1 116 12 182 55 278 85 190 242
321 443 372 177 45 373 10 529 -95 88 -60 157 -42 157 41 0 43 -43 83 -150
138 -121 63 -211 86 -350 91 -63 2 -137 0 -165 -5z"/>
<path d="M3551 2604 c-19 -24 -21 -40 -21 -148 l0 -121 -86 -34 -85 -33 -88
86 c-128 124 -112 129 -337 -95 -107 -107 -184 -191 -187 -205 -6 -36 16 -71
99 -155 l75 -75 -24 -55 c-13 -30 -29 -66 -35 -81 -11 -26 -11 -26 -136 -30
-183 -5 -171 17 -171 -308 0 -325 -12 -303 171 -310 l125 -5 36 -83 36 -84
-88 -88 c-126 -126 -131 -109 96 -336 228 -228 212 -223 340 -97 l89 86 47
-21 c27 -12 65 -28 86 -36 l37 -15 0 -124 c0 -179 -21 -167 304 -167 149 0
265 4 276 10 29 15 40 65 40 179 l1 106 80 34 80 33 89 -86 c131 -127 120
-130 336 86 95 94 178 184 185 200 17 42 0 72 -90 162 l-78 77 36 85 36 84
113 0 c113 0 145 7 169 39 17 21 18 499 2 534 -17 38 -51 47 -174 47 l-113 0
-26 68 c-15 37 -30 74 -36 82 -7 11 12 36 80 106 94 95 102 112 76 162 -8 15
-91 102 -184 195 -211 208 -198 205 -324 80 l-88 -87 -32 13 c-18 7 -57 22
-85 33 l-53 21 0 108 c0 112 -9 153 -38 175 -13 10 -80 13 -279 14 l-262 0
-20 -26z m439 -249 c0 -135 4 -142 109 -176 36 -12 96 -37 133 -55 102 -51
116 -48 212 46 l82 80 102 -103 c56 -56 102 -107 102 -112 0 -5 -34 -44 -77
-87 -89 -90 -92 -102 -42 -199 17 -35 42 -95 55 -133 38 -111 46 -116 181
-116 l113 0 0 -150 0 -150 -109 0 c-134 0 -149 -9 -182 -108 -12 -37 -36 -96
-54 -132 -55 -110 -53 -121 42 -221 l77 -80 -104 -104 -104 -105 -82 80 c-95
93 -104 95 -202 46 -37 -18 -98 -43 -137 -56 -110 -35 -114 -41 -117 -179 l-3
-116 -147 -3 -148 -3 0 99 c0 151 -13 173 -120 202 -24 7 -79 29 -122 51 -111
56 -117 54 -215 -43 l-83 -83 -107 107 -107 107 82 84 c93 95 96 107 56 183
-15 27 -43 94 -63 149 -27 76 -42 102 -61 112 -15 8 -66 13 -132 13 l-108 0 0
150 0 150 113 0 c134 0 148 7 172 83 9 28 37 96 62 150 34 73 43 104 38 124
-3 15 -41 62 -83 105 l-76 79 104 104 104 104 83 -79 c97 -94 110 -97 211 -46
37 18 92 41 122 51 120 39 130 54 130 201 l0 94 150 0 150 0 0 -115z"/>
<path d="M3672 2015 c-102 -22 -218 -85 -301 -161 -107 -100 -171 -202 -207
-336 -24 -85 -24 -251 0 -338 82 -302 349 -510 656 -510 106 0 170 11 258 46
189 75 333 230 399 429 37 112 39 284 5 395 -109 349 -454 552 -810 475z m372
-193 c326 -156 407 -561 165 -826 -162 -178 -427 -221 -638 -103 -131 73 -238
225 -263 375 -43 254 126 514 382 588 28 8 88 12 155 11 107 -2 112 -3 199
-45z"/>
<path d="M3743 1715 c-112 -25 -211 -106 -262 -215 -22 -47 -26 -69 -26 -150
0 -88 3 -101 33 -162 140 -285 539 -284 676 2 28 59 31 74 31 160 0 83 -4 103
-28 155 -76 163 -249 249 -424 210z m184 -173 c75 -39 113 -104 113 -194 -1
-124 -96 -218 -222 -218 -53 0 -138 48 -172 98 -42 59 -48 151 -16 217 53 109
187 153 297 97z"/>
</g>
</svg>
