<?xml version="1.0" standalone="no"?>
<!DOCTYPE svg PUBLIC "-//W3C//DTD SVG 20010904//EN"
 "http://www.w3.org/TR/2001/REC-SVG-20010904/DTD/svg10.dtd">
<svg version="1.0" xmlns="http://www.w3.org/2000/svg"
 width="512.000000pt" height="512.000000pt" viewBox="0 0 512.000000 512.000000"
 preserveAspectRatio="xMidYMid meet">

<g transform="translate(0.000000,512.000000) scale(0.100000,-0.100000)"
fill="#000000" stroke="none">
<path d="M2445 4789 c-186 -27 -380 -110 -531 -227 -213 -165 -355 -396 -416
-677 -16 -77 -16 -331 1 -410 127 -604 674 -991 1274 -900 453 68 816 410 923
870 28 119 26 368 -4 488 -112 450 -465 779 -913 852 -101 16 -238 18 -334 4z
m360 -334 c270 -73 497 -300 571 -575 25 -90 25 -310 0 -400 -25 -95 -87 -217
-150 -297 -249 -319 -718 -397 -1054 -176 -262 173 -402 468 -364 767 44 350
304 625 657 695 68 14 267 5 340 -14z"/>
<path d="M1615 2229 c-314 -41 -601 -184 -830 -414 -214 -213 -346 -463 -401
-760 -16 -82 -19 -148 -19 -366 l0 -265 27 -36 c56 -73 -28 -69 1182 -66 1078
3 1085 3 1112 24 53 39 69 71 69 134 0 63 -16 95 -69 134 -27 21 -35 21 -1018
24 l-991 2 6 158 c3 86 12 189 21 227 97 441 417 764 864 872 55 13 157 17
559 22 476 6 492 7 519 27 53 39 69 71 69 134 0 63 -16 95 -69 134 -27 20 -39
21 -494 22 -257 1 -498 -2 -537 -7z"/>
<path d="M3832 2179 c-129 -22 -291 -93 -397 -171 -265 -196 -411 -507 -392
-829 26 -422 312 -767 727 -876 129 -34 314 -36 443 -5 425 104 716 449 744
883 24 376 -186 737 -529 910 -134 67 -231 91 -398 95 -80 1 -169 -1 -198 -7z
m318 -325 c175 -41 340 -172 419 -334 75 -154 89 -317 41 -475 -65 -210 -238
-376 -453 -432 -81 -21 -233 -21 -314 0 -331 87 -538 419 -468 752 48 231 244
434 470 489 80 19 224 19 305 0z"/>
<path d="M3947 1716 c-49 -18 -64 -32 -89 -80 -52 -102 26 -226 142 -226 119
0 197 132 138 234 -39 68 -119 98 -191 72z"/>
<path d="M3965 1360 c-47 -10 -84 -39 -106 -82 -19 -36 -20 -56 -17 -248 3
-192 5 -211 24 -236 39 -53 71 -69 134 -69 63 0 95 16 134 69 19 25 21 44 24
232 3 192 2 208 -18 249 -32 67 -104 101 -175 85z"/>
</g>
</svg>
